<!-- Created with Inkscape (http://www.inkscape.org/) -->
<svg version="1.1" viewBox="0 0 290 35" xml:space="preserve" xmlns="http://www.w3.org/2000/svg"><g transform="matrix(1.588852 0 0 1.588852 5.000003 4.136378)" fill="#0030ff"><g transform="matrix(1.086213 0 0 1.086213 -50.83701 -139.3391)"><path d="m47.20848 137.9054v4.08554c.855612.56685 1.796785 1.00534 2.834215 1.31551 1.03743.31016 2.07486.45989 3.112289.45989 1.240638 0 2.331543-.2139 3.283411-.65241.951869-.4385 1.689835-1.04812 2.213897-1.82887.524063-.77005.791442-1.64705.791442-2.631 0-.79145-.181818-1.50802-.534758-2.12834s-.855612-1.12299-1.508017-1.50802c-.652404-.38502-1.422455-.63101-2.299457-.74866l-2.759349-.36363c-.427806-.0534-.759356-.17112-.994649-.34224s-.35294-.39573-.35294-.66311c0-.32085.181817-.57753.556148-.75935.363635-.17113.898392-.26738 1.604272-.26738.930478 0 1.882347.14973 2.84491.4492.962564.29946 1.807482.68448 2.524057 1.17647v-4.02139c-.716575-.36363-1.550798-.66309-2.502666-.877-.962564-.2139-1.914432-.32085-2.866301-.32085-1.272723 0-2.385018.2032-3.347583.59893-.962563.40642-1.700529.96256-2.224591 1.68983s-.780746 1.58288-.780746 2.54544c0 .85562.192513 1.59359.577538 2.2353.385026.64171.930478 1.15507 1.625663 1.54009.695185.39572 1.508017.65241 2.438495.78076l2.631007.36362c.385026.0534.68449.17113.877002.34225.192513.18182.299465.40641.299465.6845 0 .37432-.181818.65239-.545453.83421-.363635.19252-.887697.27807-1.550797.27807-1.08021 0-2.16042-.2032-3.240631-.62031-1.08021-.40642-1.978603-.96256-2.705873-1.64705z" stroke-width=".534758" style="white-space:pre"/><path d="m69.14934 137.0878-2.558061-8.47423h-6.021445v14.7378h4.168692v-9.85327l3.210736 9.64273h2.305413l3.137046-9.62168v9.83222h4.168693v-14.7378h-5.831959z" stroke-width=".52635" style="white-space:pre"/></g><g transform="matrix(.5698529 0 0 .5698529 15.4147 -6.875822)" style="shape-inside:url(#rect462);white-space:pre" aria-label="SUPERMALLS"><path d="m38.7832 20.66406c0 1.894532.546875 3.457032 1.660156 4.707032 1.09375 1.25 2.695313 2.070312 4.765625 2.441406l5.488282.996094c1.484375.292968 2.617187.839843 3.398437 1.660156.78125.820312 1.191406 1.835937 1.191406 3.027344 0 1.09375-.292968 2.050781-.859375 2.890625-.585937.839843-1.386718 1.484375-2.421875 1.953125-1.035156.46875-2.226562.683593-3.554687.683593-1.855469 0-3.59375-.429687-5.214844-1.308593-1.621094-.859375-3.085937-2.089844-4.375-3.691407v3.398438c1.289063 1.269531 2.734375 2.246094 4.335938 2.910156 1.601562.664063 3.339843.996094 5.214843.996094s3.535157-.332031 4.960938-.996094c1.425781-.664062 2.519531-1.601562 3.300781-2.8125.78125-1.210937 1.171875-2.617187 1.171875-4.21875 0-1.875-.546875-3.398437-1.640625-4.609375-1.09375-1.210937-2.675781-1.992187-4.707031-2.363281l-5.527344-.957031c-1.484375-.253907-2.636719-.800782-3.4375-1.660157-.800781-.839843-1.191406-1.933593-1.191406-3.261718 0-1.09375.273437-2.070313.820312-2.890625.546875-.820313 1.347657-1.445313 2.382813-1.875 1.015625-.429688 2.246094-.664063 3.671875-.664063 1.484375 0 2.929687.292969 4.296875.878907 1.367187.585937 2.714844 1.503906 4.0625 2.714843v-3.320312c-.957031-.585938-1.816406-1.074219-2.578125-1.445313-.78125-.351562-1.621094-.644531-2.539063-.839843-.9375-.195313-1.992187-.3125-3.164062-.3125-1.914063 0-3.574219.332031-5.019531.976562-1.445313.644531-2.539063 1.5625-3.320313 2.753906-.78125 1.210938-1.171875 2.617188-1.171875 4.238281z"/><path d="m62.80664 30.66406c0 2.109375.429687 3.964844 1.308593 5.585938.859375 1.621094 2.089844 2.871094 3.691407 3.75 1.601562.898437 3.4375 1.328125 5.527343 1.328125 2.050782 0 3.867188-.429688 5.46875-1.328125 1.582032-.878906 2.8125-2.128906 3.691407-3.75.859375-1.601563 1.308593-3.476563 1.308593-5.585938v-17.65625h-2.558593v17.61719c0 1.679687-.332032 3.144531-.996094 4.394531-.664063 1.269531-1.582031 2.246094-2.773438 2.949219-1.191406.703125-2.578125 1.054687-4.140625 1.054687-1.582031 0-2.96875-.351562-4.179687-1.054687-1.210938-.703125-2.128906-1.679688-2.792969-2.949219-.664062-1.25-.996094-2.714844-.996094-4.394531v-17.61719h-2.558593z"/><path d="m90.59961 41.01562h2.558594v-11.52344h8.085937c1.81641 0 3.41797-.332031 4.80469-1.015625 1.38672-.664062 2.46094-1.640625 3.24219-2.890625.76171-1.25 1.15234-2.695312 1.15234-4.335937s-.39063-3.066406-1.15234-4.316406c-.78125-1.25-1.85547-2.207031-3.24219-2.890625s-2.98828-1.035156-4.80469-1.035156h-10.64453zm2.558594-13.84766v-11.83594h8.046877c1.28906 0 2.4414.253907 3.45703.742188.99609.507812 1.77734 1.191406 2.32422 2.089843.54687.898438.82031 1.914063.82031 3.085938s-.27344 2.207031-.82031 3.105469c-.54688.898437-1.32813 1.601562-2.32422 2.089843-1.01563.488282-2.16797.722657-3.45703.722657z"/><path d="m115.1113 41.01562h17.67578v-2.324219h-15.11719v-10.95703h13.125v-2.324219h-13.125v-10.07812h15.03906v-2.324218h-17.59765z"/><path d="m138.1387 41.01562h2.5586v-11.83594h6.17187l8.39844 11.83594h3.16406l-8.49609-11.85547c1.60156-.07813 3.00781-.488281 4.23828-1.191406 1.21094-.703125 2.14844-1.640625 2.8125-2.8125s.99609-2.539063.99609-4.0625c0-1.601563-.37109-3.007813-1.11328-4.21875s-1.75781-2.167969-3.08594-2.851562c-1.32812-.664063-2.87109-1.015625-4.60937-1.015625h-11.03516zm2.5586-14.16016v-11.52344h8.61328c1.1914 0 2.24609.253907 3.16406.722656.89844.46875 1.60156 1.132813 2.10937 1.992188.50782.859375.76172 1.855469.76172 2.96875 0 1.171875-.2539 2.1875-.76172 3.066406-.50781.878906-1.21093 1.5625-2.10937 2.050781-.91797.488282-1.97266.722657-3.16406.722657z"/><path d="m163.4121 41.01562h2.5v-24.62891l9.12109 24.17969h2.42188l9.70703-24.35547v24.80469h2.5v-28.00781h-3.82813l-9.45312 24.35547-9.14063-24.35547h-3.82812z"/><path d="m193.8027 41.01562h2.59766l3.37891-9.355469h11.48437l3.37891 9.355469h2.67578l-10.19531-28.00781h-3.125zm6.81641-11.67969 4.90234-13.49609 4.90235 13.49609z"/><path d="m221.459 41.01562h17.67579v-2.324219h-15.11719v-25.68359h-2.5586z"/><path d="m243.2949 41.01562h17.67578v-2.324219h-15.11718v-25.68359h-2.5586z"/><path d="m263.1387 20.66406c0 1.894532.54688 3.457032 1.66016 4.707032 1.09375 1.25 2.69531 2.070312 4.76562 2.441406l5.48828.996094c1.48438.292968 2.61719.839843 3.39844 1.660156.78125.820312 1.19141 1.835937 1.19141 3.027344 0 1.09375-.29297 2.050781-.85938 2.890625-.58593.839843-1.38672 1.484375-2.42187 1.953125-1.03516.46875-2.22656.683593-3.55469.683593-1.85547 0-3.59375-.429687-5.21484-1.308593-1.6211-.859375-3.08594-2.089844-4.375-3.691407v3.398438c1.28906 1.269531 2.73437 2.246094 4.33593 2.910156 1.60157.664063 3.33985.996094 5.21485.996094s3.53515-.332031 4.96094-.996094c1.42578-.664062 2.51953-1.601562 3.30078-2.8125.78125-1.210937 1.17187-2.617187 1.17187-4.21875 0-1.875-.54687-3.398437-1.64062-4.609375-1.09375-1.210937-2.67578-1.992187-4.70703-2.363281l-5.52735-.957031c-1.48437-.253907-2.63672-.800782-3.4375-1.660157-.80078-.839843-1.1914-1.933593-1.1914-3.261718 0-1.09375.27343-2.070313.82031-2.890625.54687-.820313 1.34765-1.445313 2.38281-1.875 1.01563-.429688 2.24609-.664063 3.67188-.664063 1.48437 0 2.92968.292969 4.29687.878907 1.36719.585937 2.71484 1.503906 4.0625 2.714843v-3.320312c-.95703-.585938-1.81641-1.074219-2.57812-1.445313-.78125-.351562-1.6211-.644531-2.53907-.839843-.9375-.195313-1.99218-.3125-3.16406-.3125-1.91406 0-3.57422.332031-5.01953.976562s-2.53906 1.5625-3.32031 2.753906c-.78125 1.210938-1.17188 2.617188-1.17188 4.238281z"/></g></g></svg>
